<?xml version="1.0" encoding="UTF-8"?>
<!DOCTYPE svg PUBLIC "-//W3C//DTD SVG 1.1//EN" "http://www.w3.org/Graphics/SVG/1.1/DTD/svg11.dtd">
<!-- Creator: CorelDRAW 2019 (64-Bit) -->
<svg xmlns="http://www.w3.org/2000/svg" xml:space="preserve" width="210mm" height="162.705mm" version="1.1" style="shape-rendering:geometricPrecision; text-rendering:geometricPrecision; image-rendering:optimizeQuality; fill-rule:evenodd; clip-rule:evenodd"
viewBox="0 0 5334.53 4133.12"
 xmlns:xlink="http://www.w3.org/1999/xlink"
 xmlns:xodm="http://www.corel.com/coreldraw/odm/2003">

 <g id="Vrstva_x0020_1">
  <path class="fil0" d="M-0 0l0 2681.66 2099.34 0c0,-12.14 -1.39,-24.28 -1.39,-36.07 0,-150.52 21.16,-296.19 57.23,-435.27l-1683.49 0 0 -1738.64 4391.51 0 0 760.24c189.37,137.34 350.29,311.1 471.34,512.26l0 -1744.19 -5334.53 0z"/>
  <path class="fil0" d="M3883.06 1230.54c-800.13,0 -1450.77,650.99 -1450.77,1451.12 0,800.47 650.64,1451.47 1450.77,1451.47 800.82,0 1451.47,-650.99 1451.47,-1451.47 0,-800.13 -650.64,-1451.12 -1451.47,-1451.12zm0 2508.59c-582.32,0 -1056.78,-474.11 -1056.78,-1057.47 0,-582.67 474.46,-1057.47 1056.78,-1057.47 584.05,0 1057.82,474.8 1057.82,1057.47 0,583.36 -473.76,1057.47 -1057.82,1057.47z"/>
  <rect class="fil0" x="3229.64" y="2437.14" width="1333.2" height="382.89"/>
  <rect class="fil0" transform="matrix(2.64845E-14 -1 1 2.64845E-14 3704.8 3295.19)" width="1333.2" height="382.89"/>
 </g>
</svg>
