<svg id="_x33_0" enable-background="new 0 0 64 64" height="512" viewBox="0 0 64 64" width="512" xmlns="http://www.w3.org/2000/svg"><g><path d="m42 17c-1.654 0-3 1.346-3 3h2c0-.552.449-1 1-1s1 .448 1 1h2c0-1.654-1.346-3-3-3z"/><path d="m57 35.406v-3.036l.67-.782c3.437-4.009 5.33-9.126 5.33-14.408 0-7.819-6.361-14.18-14.18-14.18-.583 0-1.175.037-1.758.109l-5.033.629c-1.071-1.645-2.923-2.738-5.029-2.738-2.599 0-4.811 1.672-5.643 4h-4.357v2.577c0 1.219-.727 2.308-1.905 2.795-1.134.475-2.426.224-3.292-.643l-1.823-1.823-7.075 7.074 1.825 1.823c.864.865 1.117 2.157.621 3.344-.467 1.125-1.556 1.853-2.774 1.853h-2.577v9h-6c-1.654 0-3 1.346-3 3v20c0 .771.301 1.468.78 2-.479.532-.78 1.229-.78 2v2c0 1.654 1.346 3 3 3h51c4.411 0 8-3.589 8-8v-9.292c0-4.307-2.285-8.196-6-10.302zm-11.939 3.142c-1.013 1.06-1.847 2.245-2.491 3.521-1.333-.77-2.972-.9-4.482-.268-1.876.777-3.088 2.591-3.088 4.622v.577h-4v-6.038c.332.024.666.038 1 .038 4.613 0 8.851-2.249 11.474-6.017.76-.033 1.508-.144 2.237-.331zm-8.061 16.452h2v6h-2zm-.585-2-.856-.856c-.738-.738-1.722-1.144-2.807-1.144-.626 0-1.221.156-1.752.429v-2.429h6v-2.577c0-1.219.727-2.308 1.905-2.795.969-.405 2.051-.277 2.885.307-.51 1.502-.79 3.089-.79 4.722v4.343zm-15.718-22c-.453-1.281-.697-2.621-.697-4 0-6.617 5.383-12 12-12 1.559 0 3.057.306 4.477.88-.29.622-.55 1.236-.78 1.832-1.171-.465-2.429-.712-3.697-.712-5.514 0-10 4.486-10 10 0 1.392.302 2.745.851 4zm4.398 0c-.705-1.214-1.095-2.58-1.095-4 0-4.411 3.589-8 8-8 1.043 0 2.075.212 3.034.605-.746 2.369-1.005 4.127-1.024 4.254l-.118.826 3.108 1.036v3.279c0 1.214.365 2.344.988 3.29-1.511 1.704-3.695 2.71-5.988 2.71-.335 0-.669-.026-1-.067v-.933c0-1.654-1.346-3-3-3zm5.905 5.945c.332.033.666.055 1 .055 2.803 0 5.48-1.196 7.362-3.24.544.417 1.158.747 1.826.959-2.267 2.704-5.601 4.281-9.188 4.281-.334 0-.668-.017-1-.044zm16.873-3.1c.404-.202.799-.424 1.178-.677l.504-.336-1.109-1.664-.504.336c-1.469.978-3.177 1.496-4.942 1.496-1.858 0-3.411-1.279-3.858-3h1.029c2.091 0 4.057-.814 5.536-2.293l-1.414-1.414c-1.101 1.101-2.565 1.707-4.122 1.707h-1.171v-3.721l-2.862-.954c.315-1.554 1.189-5.068 3.054-8.325h4.472c1.978 0 3.68 1.477 3.96 3.435l.669 4.688 2.588-2.588c.345-.346.803-.535 1.29-.535 1.004 0 1.822.816 1.824 1.83.002 1.024-.505 1.975-1.357 2.542l-1.78 1.187.296 1.186c.579 2.317 1.94 4.338 3.845 5.76v2.929l-.227.137c-2.31 1.385-4.911 2.201-7.586 2.389zm-14.873-26.815c0-2.222 1.794-4.03 4-4.03s4 1.794 4 4c0 1.103-.897 2-2 2s-2-.897-2-2h-2c0 2.206 1.794 4 4 4s4-1.794 4-4c0-.464-.058-.914-.158-1.348l4.468-.558c.501-.063 1.009-.094 1.51-.094 6.716 0 12.18 5.464 12.18 12.18 0 4.805-1.722 9.46-4.849 13.107l-.3.35c-1.308-1.087-2.256-2.545-2.708-4.198l.605-.403c1.411-.94 2.251-2.514 2.248-4.22-.004-2.104-1.72-3.816-3.825-3.816-.912 0-1.774.316-2.462.896l-.106-.745c-.419-2.936-2.973-5.151-5.939-5.151h-4.841c-3.211 0-5.823-2.612-5.823-5.823zm-21 16.97h.577c2.03 0 3.844-1.212 4.641-3.133.788-1.887.367-4.037-1.074-5.478l-.41-.409 4.246-4.246.41.409c1.439 1.439 3.589 1.863 5.522 1.055 1.876-.776 3.088-2.59 3.088-4.621v-.577h2.002c-.001.01-.002.02-.002.03v.146c0 2.373 1.066 4.499 2.74 5.935-.573-.07-1.153-.111-1.74-.111-7.72 0-14 6.28-14 14 0 1.369.198 2.708.584 4h-6.584zm16 9c.551 0 1 .448 1 1v19.121c-1.21.249-2.254.928-2.974 1.879h-19.026v-21c0-.552.449-1 1-1zm-25 1c0-.552.449-1 1-1h1.184c-.112.314-.184.648-.184 1v21h-1c-.551 0-1-.448-1-1zm0 26v-2c0-.552.449-1 1-1h21.107c-.066.324-.107.657-.107 1 0 1.13.391 2.162 1.026 3h-22.026c-.551 0-1-.448-1-1zm24-2c0-1.654 1.346-3 3-3h.618l.493-.985c.312-.626.941-1.015 1.678-1.015.515 0 .996.198 1.355.558l.856.856v6.586h-5c-1.654 0-3-1.346-3-3zm34-3c0 3.309-2.691 6-6 6h-14v-6h12.586l1.707 1.707 1.414-1.414-1.707-1.707v-6.35c0-1.309.309-2.619.895-3.789l-1.789-.895c-.724 1.447-1.106 3.067-1.106 4.684v5.764h-10v-4.343c0-3.255 1.231-6.315 3.455-8.673 3.293-.079 6.516-1.001 9.347-2.699l.205-.123c3.084 1.751 4.993 4.968 4.993 8.546z"/><path d="m27 35h-18v18h18zm-2 16h-14v-14h14z"/><path d="m13 47h10v2h-10z"/><path d="m13 43h10v2h-10z"/><path d="m13 39h4v2h-4z"/></g></svg>