<?xml version="1.0" encoding="UTF-8"?>
<!DOCTYPE svg PUBLIC "-//W3C//DTD SVG 1.1//EN" "http://www.w3.org/Graphics/SVG/1.1/DTD/svg11.dtd">
<!-- Creator: CorelDRAW 2019 (64-Bit) -->
<svg xmlns="http://www.w3.org/2000/svg" xml:space="preserve" width="121.356mm" height="121.356mm" version="1.1" shape-rendering="geometricPrecision" text-rendering="geometricPrecision" image-rendering="optimizeQuality" fill-rule="evenodd" clip-rule="evenodd"
viewBox="0 0 2962.17 2962.17"
 xmlns:xlink="http://www.w3.org/1999/xlink"
 xmlns:xodm="http://www.corel.com/coreldraw/odm/2003"
 enable-background="new 0 0 512 512">
 <g id="Vrstva_x0020_1">
  <metadata id="CorelCorpID_0Corel-Layer"/>
  <g id="_1648291350224">
   <path fill="black" fill-rule="nonzero" d="M1481.09 0c-813.5,0 -1481.09,667.59 -1481.09,1481.09 0,813.5 667.59,1481.09 1481.09,1481.09 813.5,0 1481.09,-667.59 1481.09,-1481.09 0,-813.5 -667.59,-1481.09 -1481.09,-1481.09zm0 2609.26c-622.06,0 -1128.17,-506.12 -1128.17,-1128.17 0,-248.49 81.73,-477.71 218.39,-664.33l1574.11 1574.12c-186.61,136.65 -415.84,218.39 -664.32,218.39l0 0zm909.78 -463.85l-1574.12 -1574.11c186.62,-136.66 415.84,-218.39 664.33,-218.39 622.06,0 1128.17,506.12 1128.17,1128.17 0,248.48 -81.74,477.71 -218.39,664.32l-0 -0z"/>
  </g>
 </g>
</svg>
