<svg id="Capa_1" enable-background="new 0 0 512 512" height="512" viewBox="0 0 512 512" width="512" xmlns="http://www.w3.org/2000/svg"><g><path d="m196.992 234.287h-179.497c-9.646 0-17.495 7.848-17.495 17.495v119.687c0 9.646 7.849 17.495 17.495 17.495h179.497c9.646 0 17.494-7.848 17.494-17.495v-119.687c0-9.647-7.847-17.495-17.494-17.495zm2.494 137.182c0 1.375-1.119 2.495-2.494 2.495h-179.497c-1.376 0-2.495-1.119-2.495-2.495v-119.687c0-1.375 1.119-2.495 2.495-2.495h179.497c1.375 0 2.494 1.119 2.494 2.495z"/><path d="m163.051 265.019c-4.143 0-7.5 3.358-7.5 7.5v78.214c0 4.142 3.357 7.5 7.5 7.5s7.5-3.358 7.5-7.5v-78.214c0-4.143-3.358-7.5-7.5-7.5z"/><path d="m135.147 265.019c-4.143 0-7.5 3.358-7.5 7.5v78.214c0 4.142 3.357 7.5 7.5 7.5s7.5-3.358 7.5-7.5v-78.214c0-4.143-3.357-7.5-7.5-7.5z"/><path d="m107.243 265.019c-4.143 0-7.5 3.358-7.5 7.5v78.214c0 4.142 3.357 7.5 7.5 7.5s7.5-3.358 7.5-7.5v-78.214c0-4.143-3.357-7.5-7.5-7.5z"/><path d="m51.436 265.019c-4.143 0-7.5 3.358-7.5 7.5v78.214c0 4.142 3.357 7.5 7.5 7.5s7.5-3.358 7.5-7.5v-78.214c0-4.143-3.358-7.5-7.5-7.5z"/><path d="m504.5 349.42h-23.53c-21.212 0-38.47 17.258-38.47 38.47v39.58c0 12.941-10.524 23.47-23.46 23.47h-19.39c-16.474 0-29.987-12.894-30.994-29.119l17.764-3.852c20.438-4.437 33.971-23.44 31.472-44.24l-23.227-185.612c14.005-3.713 26.685-11.597 36.248-22.685 11.289-13.089 17.506-29.828 17.506-47.132 0-39.833-32.402-72.24-72.229-72.24h-43.01c-4.143 0-7.5 3.358-7.5 7.5s3.357 7.5 7.5 7.5h43.011c31.557 0 57.229 25.678 57.229 57.24 0 28.315-20.282 52.086-48.227 56.523-2.953.469-5.982.707-9.003.707h-179.73c-6.094 0-11.544-3.632-13.886-9.253l-39.832-95.645c-.904-2.167-.676-4.532.628-6.488 1.306-1.959 3.405-3.083 5.76-3.083h149.05c4.143 0 7.5-3.358 7.5-7.5s-3.357-7.5-7.5-7.5h-149.05c-7.349 0-14.168 3.651-18.242 9.766-2.827 4.242-4.046 9.246-3.585 14.174h-14.723c-4.185 0-8.07 2.08-10.394 5.564-2.324 3.485-2.75 7.874-1.141 11.74l29.809 71.56c1.931 4.693 6.463 7.726 11.546 7.726h24.055l2.272 5.455c4.679 11.229 15.564 18.485 27.732 18.485h67.115c2.868 8.589 4.33 17.631 4.217 26.437-.018 1.374-.068 2.752-.118 4.132-.197 5.434-.4 11.054 1.102 16.902 4.169 16.28 19.189 25.447 31.854 28.597 4.718 1.174 9.674 1.809 15.247 1.942l1.032 8.188c.479 3.792 3.708 6.563 7.432 6.563.313 0 .629-.02.947-.06 4.109-.518 7.021-4.269 6.504-8.378l-10.626-84.323s57.457-.042 58.672-.103l23.167 185.128c1.566 13.038-6.931 24.97-19.764 27.756l-61.608 13.359c-4.602.994-9.329-.127-12.988-3.078-3.656-2.95-5.754-7.335-5.754-12.032v-9.19c0-7.224 5.123-13.579 12.184-15.111l4.642-1.009c13.72-2.966 22.796-15.713 21.106-29.688l-4.62-36.67c-.518-4.109-4.262-7.017-8.379-6.504-4.109.518-7.021 4.269-6.504 8.379l4.616 36.632c.749 6.2-3.287 11.87-9.397 13.191l-4.647 1.01c-13.906 3.018-24 15.538-24 29.769v9.19c0 9.255 4.132 17.896 11.337 23.708 5.485 4.424 12.196 6.761 19.079 6.761 2.162 0 4.341-.23 6.504-.699l29.075-6.305c2.567 22.984 22.108 40.915 45.766 40.915h19.39c21.207 0 38.46-17.257 38.46-38.47v-39.58c0-12.941 10.528-23.47 23.47-23.47h23.53c4.143 0 7.5-3.358 7.5-7.5s-3.359-7.5-7.502-7.5zm-360.427-197.83-27.737-66.59h16.141l27.732 66.59zm169.901 101.857c-3.531-.2-6.724-.658-9.723-1.405-10.639-2.646-18.859-9.618-20.946-17.767-.964-3.75-.808-8.065-.642-12.633.054-1.498.107-2.996.126-4.484.114-8.851-1.097-17.893-3.524-26.627h26.781z"/></g></svg>