<?xml version="1.0" encoding="UTF-8"?>
<!DOCTYPE svg PUBLIC "-//W3C//DTD SVG 1.1//EN" "http://www.w3.org/Graphics/SVG/1.1/DTD/svg11.dtd">
<!-- Creator: CorelDRAW 2019 (64-Bit) -->
<svg xmlns="http://www.w3.org/2000/svg" xml:space="preserve" width="210.961mm" height="210.961mm" version="1.1" shape-rendering="geometricPrecision" text-rendering="geometricPrecision" image-rendering="optimizeQuality" fill-rule="evenodd" clip-rule="evenodd"
viewBox="0 0 23833.59 23833.61"
 xmlns:xlink="http://www.w3.org/1999/xlink"
 xmlns:xodm="http://www.corel.com/coreldraw/odm/2003"
 enable-background="new 0 0 511.448 511.448">
 <g id="Vrstva_x0020_1">
  <metadata id="CorelCorpID_0Corel-Layer"/>
  <g id="_1648290497376">
   <path fill="black" fill-rule="nonzero" d="M20341.36 3492.24c-4655.96,-4655.96 -12192.48,-4656.67 -16849.12,0 -4655.96,4655.96 -4656.67,12192.48 0,16849.12 4655.96,4655.97 12192.48,4656.67 16849.12,0 4655.92,-4655.92 4656.64,-12192.44 0,-16849.12zm-8424.59 18381.47c-5490.25,0 -9956.93,-4466.67 -9956.93,-9956.92 0,-5490.25 4466.68,-9956.9 9956.93,-9956.9 5490.25,0 9956.9,4466.68 9956.9,9956.93 0,5490.25 -4466.64,9956.89 -9956.9,9956.89z"/>
   <path fill="black" fill-rule="nonzero" d="M13905.02 7458.73c-540.46,0 -978.6,438.13 -978.6,978.59l0 6958.97c0,540.46 438.14,978.59 978.6,978.59 540.47,0 978.6,-438.13 978.6,-978.59l0 -6958.97c0,-540.46 -438.09,-978.59 -978.6,-978.59z"/>
   <path fill="black" fill-rule="nonzero" d="M9928.48 7458.73c-540.47,0 -978.6,438.13 -978.6,978.59l0 6958.97c0,540.46 438.13,978.59 978.6,978.59 540.46,0 978.59,-438.13 978.59,-978.59l0 -6958.97c0,-540.46 -438.08,-978.59 -978.59,-978.59z"/>
  </g>
 </g>
</svg>
