<?xml version="1.0" encoding="UTF-8"?>
<!DOCTYPE svg PUBLIC "-//W3C//DTD SVG 1.1//EN" "http://www.w3.org/Graphics/SVG/1.1/DTD/svg11.dtd">
<!-- Creator: CorelDRAW 2019 (64-Bit) -->
<svg xmlns="http://www.w3.org/2000/svg" xml:space="preserve" width="225.557mm" height="207.517mm" version="1.1" shape-rendering="geometricPrecision" text-rendering="geometricPrecision" image-rendering="optimizeQuality" fill-rule="evenodd" clip-rule="evenodd"
viewBox="0 0 3503.72 3223.49"
 xmlns:xlink="http://www.w3.org/1999/xlink"
 xmlns:xodm="http://www.corel.com/coreldraw/odm/2003">
 <g id="Vrstva_x0020_1">
  <metadata id="CorelCorpID_0Corel-Layer"/>
  <g id="_1648285901168">
   <path fill="black" fill-rule="nonzero" d="M3022.02 0l-2540.33 0c-265.6,0 -481.7,216.05 -481.7,481.7l0 1554.63c0,265.05 215.15,480.76 479.99,481.7l0 705.47 1013.84 -705.47 1528.19 0c265.6,0 481.7,-216.1 481.7,-481.7l0 -1554.63c0,-265.65 -216.1,-481.7 -481.7,-481.7zm276.4 2036.32c0,152.39 -123.99,276.4 -276.4,276.4l-1592.61 0 -744.14 517.82 0 -517.82 -203.59 0c-152.41,0 -276.4,-124.01 -276.4,-276.4l0 -1554.63c0,-152.43 123.99,-276.4 276.4,-276.4l2540.33 -0c152.41,0 276.4,123.97 276.4,276.4l0 1554.63zm0 0z"/>
   <path fill="black" fill-rule="nonzero" d="M937.75 725.4l1628.21 0 0 205.3 -1628.21 0 0 -205.3zm0 0z"/>
   <path fill="black" fill-rule="nonzero" d="M937.75 1163.37l1628.21 0 0 205.3 -1628.21 0 0 -205.3zm0 0z"/>
   <path fill="black" fill-rule="nonzero" d="M937.75 1601.33l1628.21 0 0 205.29 -1628.21 0 0 -205.29zm0 0z"/>
  </g>
 </g>
</svg>
