<?xml version="1.0" encoding="UTF-8"?>
<!DOCTYPE svg PUBLIC "-//W3C//DTD SVG 1.1//EN" "http://www.w3.org/Graphics/SVG/1.1/DTD/svg11.dtd">
<!-- Creator: CorelDRAW 2019 (64-Bit) -->
<svg xmlns="http://www.w3.org/2000/svg" xml:space="preserve" width="196mm" height="210mm" version="1.1" shape-rendering="geometricPrecision" text-rendering="geometricPrecision" image-rendering="optimizeQuality" fill-rule="evenodd" clip-rule="evenodd"
viewBox="0 0 6606.63 7078.53"
 xmlns:xlink="http://www.w3.org/1999/xlink"
 xmlns:xodm="http://www.corel.com/coreldraw/odm/2003">
 <g id="Vrstva_x0020_1">
  <metadata id="CorelCorpID_0Corel-Layer"/>
  <g id="_1648322195072">
   <g>
    <g>
     <path fill="black" fill-rule="nonzero" d="M6548.47 3083.65c-36.01,-21.15 -80.52,-21.69 -117.03,-1.42l-324.67 180.38 -90.02 -3147.94c-1.78,-63.87 -54.09,-114.7 -117.98,-114.67l-825.83 0c-63.89,-0.03 -116.19,50.8 -117.98,114.67l-109.95 3849.3 -361.95 200.56 0 -979.2c-0.03,-65.15 -52.88,-117.94 -118.04,-117.91 -20,0.01 -39.67,5.1 -57.16,14.81l-1948.36 1082.3 0 -979.2c-0.03,-65.15 -52.88,-117.94 -118.04,-117.91 -20,0.01 -39.67,5.1 -57.16,14.81l-2123.56 1179.75c-37.47,20.78 -60.74,60.26 -60.76,103.11l0 2595.46c0,65.15 52.82,117.98 117.98,117.98l6370.68 0c65.15,0 117.98,-52.82 117.98,-117.98l0 -3775.22c0,-41.81 -22.12,-80.5 -58.16,-101.69zm-1360.85 -2847.69l596.48 0 6.84 235.95 -610.05 0 6.72 -235.95zm-13.57 471.9l623.62 0 76.68 2683.82 -789.61 438.51 89.31 -3122.34zm-1988.71 6134.72l-707.85 0 0 -589.88 707.85 0 0 589.88zm943.8 0l-707.85 0 0 -589.88 707.85 0 0 589.88zm2241.53 0l-2005.58 0 0 -707.85c0,-65.15 -52.82,-117.98 -117.98,-117.98l-1887.6 0c-65.15,0 -117.98,52.82 -117.98,117.98l0 707.85 -2005.58 0 0 -2408 1887.61 -1048.68 0 979.2c0.03,65.15 52.88,117.95 118.04,117.92 20,-0.01 39.67,-5.1 57.16,-14.81l1948.36 -1082.31 0 979.2c0.03,65.15 52.88,117.95 118.04,117.92 20,-0.01 39.67,-5.1 57.16,-14.81l1112.63 -618.07 517.2 -287.27 318.53 -176.96 0 3456.68z"/>
    </g>
   </g>
   <g>
    <g>
     <path fill="black" fill-rule="nonzero" d="M1651.66 4719.02l-943.8 0c-65.15,0 -117.98,52.82 -117.98,117.98l0 471.9c0,65.15 52.82,117.98 117.98,117.98l943.8 0c65.15,0 117.98,-52.82 117.98,-117.98l0 -471.9c0,-65.15 -52.82,-117.98 -117.98,-117.98zm-117.98 471.9l-707.85 0 0 -235.95 707.85 0 0 235.95z"/>
    </g>
   </g>
   <g>
    <g>
     <path fill="black" fill-rule="nonzero" d="M3775.22 4719.02l-943.8 0c-65.15,0 -117.98,52.82 -117.98,117.98l0 471.9c0,65.15 52.82,117.98 117.98,117.98l943.8 0c65.15,0 117.98,-52.82 117.98,-117.98l0 -471.9c0,-65.15 -52.82,-117.98 -117.98,-117.98zm-117.98 471.9l-707.85 0 0 -235.95 707.85 0 0 235.95z"/>
    </g>
   </g>
   <g>
    <g>
     <path fill="black" fill-rule="nonzero" d="M5898.78 4719.02l-943.8 0c-65.15,0 -117.98,52.82 -117.98,117.98l0 471.9c0,65.15 52.82,117.98 117.98,117.98l943.8 0c65.15,0 117.98,-52.82 117.98,-117.98l0 -471.9c0,-65.15 -52.82,-117.98 -117.98,-117.98zm-117.98 471.9l-707.85 0 0 -235.95 707.85 0 0 235.95z"/>
    </g>
   </g>
   <g>
   </g>
   <g>
   </g>
   <g>
   </g>
   <g>
   </g>
   <g>
   </g>
   <g>
   </g>
   <g>
   </g>
   <g>
   </g>
   <g>
   </g>
   <g>
   </g>
   <g>
   </g>
   <g>
   </g>
   <g>
   </g>
   <g>
   </g>
   <g>
   </g>
  </g>
 </g>
</svg>
