<?xml version="1.0" encoding="UTF-8"?>
<!DOCTYPE svg PUBLIC "-//W3C//DTD SVG 1.1//EN" "http://www.w3.org/Graphics/SVG/1.1/DTD/svg11.dtd">
<!-- Creator: CorelDRAW 2019 (64-Bit) -->
<svg xmlns="http://www.w3.org/2000/svg" xml:space="preserve" width="210mm" height="111.471mm" version="1.1" shape-rendering="geometricPrecision" text-rendering="geometricPrecision" image-rendering="optimizeQuality" fill-rule="evenodd" clip-rule="evenodd"
viewBox="0 0 7476.42 3968.58"
 xmlns:xlink="http://www.w3.org/1999/xlink"
 xmlns:xodm="http://www.corel.com/coreldraw/odm/2003">
 <g id="Vrstva_x0020_1">
  <metadata id="CorelCorpID_0Corel-Layer"/>
  <g id="_1648291395376">
   <g>
    <path fill="#1D1D1B" fill-rule="nonzero" d="M7249.74 227.46c-302.83,-302.73 -795.58,-302.79 -1098.41,0l-1865.97 1865.93 -118.79 -118.79 648.73 -648.73c6.37,-6.37 12.35,-13.01 17.92,-19.83 283.94,-304.12 278.51,-782.11 -17.92,-1078.54 -146.7,-146.73 -341.7,-227.5 -549.18,-227.5 -207.49,0 -402.49,80.76 -549.22,227.46l-1865.93 1865.93 -525.11 -525.07c-302.83,-302.76 -795.54,-302.76 -1098.37,0 -146.73,146.73 -227.5,341.73 -227.5,549.21 0,203.35 77.98,394.38 219.18,540.04 2.78,3.03 5.32,6.23 8.28,9.15l1072.94 1072.94c0.45,0.45 0.8,0.98 1.29,1.43 146.73,146.7 341.73,227.46 549.22,227.46 207.45,0 402.45,-80.76 549.18,-227.46l0.07 -0.07 0 0 0 0 667.98 -667.98 666.66 666.66c0.45,0.45 0.8,0.98 1.29,1.43 146.73,146.7 341.73,227.46 549.18,227.46 207.49,0 402.49,-80.76 549.22,-227.46l2415.25 -2415.26c6.37,-6.37 12.35,-13.01 17.92,-19.83 283.94,-304.12 278.51,-782.11 -17.92,-1078.57zm-6653.2 1709.98c99.31,-99.27 260.93,-99.31 360.28,0l709.63 709.62c6.37,6.37 13.01,12.32 19.83,17.92 47.85,39.01 106.3,58.53 164.72,58.53 58.42,0 116.88,-19.52 164.72,-58.53 6.82,-5.57 13.46,-11.55 19.83,-17.92l2050.49 -2050.49c48.12,-48.12 112.08,-74.64 180.14,-74.64 68.02,0 131.98,26.48 180.1,74.64 99.31,99.31 99.31,260.9 0,360.24l-2415.12 2415.15c-48.12,48.12 -112.07,74.64 -180.1,74.64 -68.06,0 -132.02,-26.52 -180.14,-74.64l-1074.29 -1074.29c-0.07,-0.07 -0.14,-0.1 -0.17,-0.17 -48.02,-48.09 -74.43,-111.98 -74.43,-179.93 -0.1,-68.09 26.42,-132.04 74.5,-180.13zm3200.91 406.28l303.32 303.32c50.97,50.94 117.75,76.41 184.56,76.41 66.77,0 133.58,-25.47 184.56,-76.41l2050.53 -2050.49c99.31,-99.38 260.93,-99.31 360.24,0 99.31,99.31 99.31,260.9 0,360.24l-2415.15 2415.15c-48.12,48.12 -112.08,74.64 -180.14,74.64 -68.02,0 -131.98,-26.52 -180.1,-74.64l-667.98 -668.01 360.17 -360.21z"/>
   </g>
   <g>
   </g>
   <g>
   </g>
   <g>
   </g>
   <g>
   </g>
   <g>
   </g>
   <g>
   </g>
   <g>
   </g>
   <g>
   </g>
   <g>
   </g>
   <g>
   </g>
   <g>
   </g>
   <g>
   </g>
   <g>
   </g>
   <g>
   </g>
   <g>
   </g>
  </g>
 </g>
</svg>
