<svg xmlns="http://www.w3.org/2000/svg" xml:space="preserve" width="123.56mm" height="123.56mm" version="1.1" shape-rendering="geometricPrecision" text-rendering="geometricPrecision" image-rendering="optimizeQuality" fill-rule="evenodd" clip-rule="evenodd"
viewBox="0 0 6019.58 6019.57"
 xmlns:xlink="http://www.w3.org/1999/xlink"
 xmlns:xodm="http://www.corel.com/coreldraw/odm/2003">
 <g id="Vrstva_x0020_1">
  <metadata id="CorelCorpID_0Corel-Layer"/>
  <path d="M5792.71 2486.46l-2455.52 0c-108.28,0 -195.93,87.65 -195.93,195.93l0 784.99c0,108.28 87.65,195.93 195.93,195.93l1383.09 0c-150.81,393.14 -434.39,721.84 -794.02,930.65l589.07 1020.88c944.83,-546.53 1504.25,-1506.83 1504.25,-2580.56 0,-153.38 -11.6,-262.95 -33.51,-385.4 -18.05,-94.1 -99.25,-162.41 -193.35,-162.41l-0 0zm-2782.92 -1308.32c6.89,0 13.77,0.03 20.64,0.11l0 0c6.87,0.08 13.73,0.18 20.59,0.34l0 0c424.9,9.47 815.51,164.93 1121.44,417.17 78.63,64.45 192.06,59.29 262.95,-11.6l555.55 -555.55c81.21,-81.21 74.76,-213.97 -11.6,-288.74 -529.78,-461.46 -1219.38,-739.88 -1969.57,-739.88 -1112.39,0 -2085.58,605.82 -2605.04,1506.83 -257.8,442.12 -404.74,955.14 -404.74,1502.95 0,547.82 146.95,1060.84 404.74,1502.96 519.46,901 1492.65,1506.83 2605.04,1506.83 8.54,0 17.07,-0.03 25.6,-0.11 8.53,-0.07 17.04,-0.18 25.55,-0.32 8.51,-0.14 17,-0.32 25.49,-0.54 8.49,-0.21 16.97,-0.46 25.45,-0.75 8.47,-0.28 16.94,-0.6 25.4,-0.96 8.46,-0.36 16.91,-0.75 25.35,-1.17 8.44,-0.42 16.87,-0.89 25.29,-1.38l0 0c8.42,-0.5 16.83,-1.03 25.24,-1.59l0 0c8.4,-0.57 16.8,-1.16 25.18,-1.8 8.38,-0.63 16.76,-1.3 25.13,-2.01l0 0c8.36,-0.7 16.72,-1.44 25.07,-2.21l0 0c8.35,-0.77 16.68,-1.58 25.01,-2.42l0.01 0c8.33,-0.84 16.64,-1.71 24.95,-2.62l0.01 0c8.31,-0.91 16.6,-1.86 24.89,-2.83l0.01 0c8.29,-0.97 16.56,-1.99 24.83,-3.03l0.01 0c8.27,-1.04 16.52,-2.12 24.76,-3.23l0.02 0c8.24,-1.11 16.48,-2.26 24.7,-3.43l0.02 0c8.22,-1.18 16.43,-2.39 24.63,-3.63l0.03 0c8.2,-1.24 16.39,-2.52 24.57,-3.83l0.03 0c368.51,-59.03 715.6,-185.22 1028.28,-365.58l0 -1.29 -589.07 -1020.88 -0.97 0.56 -0.32 -0.55c-256.71,148.62 -552.04,238.72 -868.15,246.88l-0.23 0 -0 0c-5.18,0.13 -10.37,0.24 -15.57,0.33l-0 0c-10.39,0.18 -20.8,0.26 -31.23,0.26l0 0c-676.71,0 -1267.07,-369.94 -1584.16,-916.47 -157.26,-269.4 -247.49,-581.33 -247.49,-915.18 0,-333.84 91.52,-645.78 247.49,-915.18 317.09,-546.53 907.45,-916.47 1584.16,-916.47z"/>
 </g>
</svg>
