<svg xmlns="http://www.w3.org/2000/svg" xml:space="preserve" width="123.56mm" height="123.56mm" version="1.1" shape-rendering="geometricPrecision" text-rendering="geometricPrecision" image-rendering="optimizeQuality" fill-rule="evenodd" clip-rule="evenodd"
viewBox="0 0 6019.58 6019.57"
 xmlns:xlink="http://www.w3.org/1999/xlink"
 xmlns:xodm="http://www.corel.com/coreldraw/odm/2003">
 <g id="Vrstva_x0020_1">
  <metadata id="CorelCorpID_0Corel-Layer"/>
  <g id="_1647777773472">
   <path fill="#167EE6" fill-rule="nonzero" d="M5792.71 2486.46l-2455.52 0c-108.28,0 -195.93,87.65 -195.93,195.93l0 784.99c0,108.28 87.65,195.93 195.93,195.93l1383.09 0c-150.81,393.14 -434.39,721.84 -794.02,930.65l589.07 1020.88c944.83,-546.53 1504.25,-1506.83 1504.25,-2580.56 0,-153.38 -11.6,-262.95 -33.51,-385.4 -18.05,-94.1 -99.25,-162.41 -193.35,-162.41l-0 0z"/>
   <path fill="#12B347" fill-rule="nonzero" d="M3009.78 4841.44c-676.71,0 -1267.07,-369.94 -1584.16,-916.47l-1020.88 587.78c519.46,901 1492.65,1506.83 2605.04,1506.83 546.53,0 1060.84,-146.95 1505.54,-403.46l0 -1.29 -589.07 -1020.88c-270.69,157.26 -582.62,247.49 -916.47,247.49l0 0z"/>
   <path fill="#0F993E" fill-rule="nonzero" d="M4514.03 5616.12l0 -1.29 -589.07 -1020.88c-269.4,155.97 -581.33,247.49 -915.18,247.49l0 1178.13c546.53,0 1060.84,-146.95 1504.25,-403.46l0 0z"/>
   <path fill="#FFD500" fill-rule="nonzero" d="M1178.13 3009.78c0,-333.84 91.52,-645.78 247.49,-915.18l-1020.88 -587.78c-257.8,442.12 -404.74,955.14 -404.74,1502.95 0,547.82 146.95,1060.84 404.74,1502.96l1020.88 -587.78c-157.26,-269.4 -247.49,-581.33 -247.49,-915.18z"/>
   <path fill="#FF4B26" fill-rule="nonzero" d="M3009.78 1178.13c440.84,0 846.86,157.26 1162.67,417.63 78.63,64.45 192.06,59.29 262.95,-11.6l555.55 -555.55c81.21,-81.21 74.76,-213.97 -11.6,-288.74 -529.78,-461.46 -1219.38,-739.88 -1969.57,-739.88 -1112.39,0 -2085.58,605.82 -2605.04,1506.83l1020.88 587.78c317.09,-546.53 907.45,-916.47 1584.16,-916.47z"/>
   <path fill="#D93F21" fill-rule="nonzero" d="M4172.45 1595.77c78.63,64.45 192.06,59.29 262.95,-11.6l555.55 -555.55c81.21,-81.21 74.76,-213.97 -11.6,-288.74 -529.78,-461.46 -1219.38,-739.88 -1969.57,-739.88l0 1178.13c440.84,0 846.86,155.97 1162.67,417.63z"/>
  </g>
 </g>
</svg>
