<?xml version="1.0" encoding="UTF-8"?>
<!DOCTYPE svg PUBLIC "-//W3C//DTD SVG 1.1//EN" "http://www.w3.org/Graphics/SVG/1.1/DTD/svg11.dtd">
<!-- Creator: CorelDRAW 2019 (64-Bit) -->
<svg xmlns="http://www.w3.org/2000/svg" xml:space="preserve" width="157.5mm" height="210mm" version="1.1" shape-rendering="geometricPrecision" text-rendering="geometricPrecision" image-rendering="optimizeQuality" fill-rule="evenodd" clip-rule="evenodd"
viewBox="0 0 2161.7 2882.26"
 xmlns:xlink="http://www.w3.org/1999/xlink"
 xmlns:xodm="http://www.corel.com/coreldraw/odm/2003">
 <g id="Vrstva_x0020_1">
  <metadata id="CorelCorpID_0Corel-Layer"/>
  <g id="_1648282413104">
   <g>
    <g>
     <g>
      <path fill="black" fill-rule="nonzero" d="M938.94 1994.58l-37.88 340.64c-1.87,16.94 3.57,33.95 14.95,46.68 11.38,12.72 27.68,20 44.74,20l240.19 -0c17.06,0 33.37,-7.27 44.74,-20 11.38,-12.72 16.83,-29.73 14.95,-46.68l-37.88 -340.64c61.51,-44.74 98.28,-115.52 98.28,-193.16 0,-132.47 -107.72,-240.19 -240.19,-240.19 -132.47,0 -240.19,107.73 -240.19,240.19 0,77.64 36.77,148.42 98.28,193.16zm141.91 -313.26c66.2,0 120.09,53.89 120.09,120.09 0,46.03 -26.15,87.26 -68.26,107.66 -22.93,11.14 -36.35,35.42 -33.54,60.69l34.72 312.02 -106.02 0 34.72 -312.02c2.82,-25.28 -10.61,-49.55 -33.54,-60.69 -42.1,-20.41 -68.26,-61.63 -68.26,-107.66 -0.01,-66.2 53.88,-120.09 120.09,-120.09z"/>
      <path fill="black" fill-rule="nonzero" d="M2101.65 1080.85l-180.14 0 0 -240.19c0,-463.54 -377.11,-840.66 -840.66,-840.66 -463.55,0 -840.66,377.12 -840.66,840.66l0 240.19 -180.14 0c-33.19,0 -60.05,26.86 -60.05,60.05l0 1501.18c0,132.47 107.72,240.19 240.19,240.19l1681.32 0c132.47,0 240.18,-107.72 240.18,-240.19l0 -1501.18c0,-33.19 -26.86,-60.05 -60.05,-60.05zm-1741.37 -240.19c0,-397.34 323.22,-720.57 720.57,-720.57 397.34,0 720.57,323.22 720.57,720.57l0 240.19 -120.09 0 0 -240.19c0,-331.08 -269.39,-600.47 -600.47,-600.47 -331.08,0 -600.47,269.4 -600.47,600.47l0 240.19 -120.09 0 0 -240.19zm1200.94 0l0 240.19 -960.75 0 0 -240.19c0,-264.88 215.5,-480.38 480.38,-480.38 264.88,0 480.38,215.5 480.38,480.38zm480.38 1801.41c0,66.2 -53.89,120.09 -120.09,120.09l-1681.32 -0c-66.2,0 -120.09,-53.89 -120.09,-120.09l0 -1441.13 1921.51 0 0 1441.13z"/>
     </g>
    </g>
   </g>
   <g>
   </g>
   <g>
   </g>
   <g>
   </g>
   <g>
   </g>
   <g>
   </g>
   <g>
   </g>
   <g>
   </g>
   <g>
   </g>
   <g>
   </g>
   <g>
   </g>
   <g>
   </g>
   <g>
   </g>
   <g>
   </g>
   <g>
   </g>
   <g>
   </g>
  </g>
 </g>
</svg>
