<?xml version="1.0" encoding="UTF-8"?>
<!DOCTYPE svg PUBLIC "-//W3C//DTD SVG 1.1//EN" "http://www.w3.org/Graphics/SVG/1.1/DTD/svg11.dtd">
<!-- Creator: CorelDRAW 2019 (64-Bit) -->
<svg xmlns="http://www.w3.org/2000/svg" xml:space="preserve" width="159.203mm" height="210mm" version="1.1" style="shape-rendering:geometricPrecision; text-rendering:geometricPrecision; image-rendering:optimizeQuality; fill-rule:evenodd; clip-rule:evenodd"
viewBox="0 0 2485.76 3278.89"
 xmlns:xlink="http://www.w3.org/1999/xlink"
 xmlns:xodm="http://www.corel.com/coreldraw/odm/2003">
 <defs>
  <style type="text/css">
   <![CDATA[
    .fil0 {fill:black;fill-rule:nonzero}
   ]]>
  </style>
 </defs>
 <g id="Vrstva_x0020_1">
  <metadata id="CorelCorpID_0Corel-Layer"/>
  <path class="fil0" d="M207.98 1285.93l1697.27 -1193.61c142,-98.56 284.83,-120.29 405.1,-55.12 109.42,55.12 175.41,186.26 175.41,350.82l0 2507.48c0,164.55 -65.99,295.69 -175.41,350.82 -43.43,21.72 -87.7,32.58 -142,32.58 -76.85,0 -175.41,-32.58 -263.11,-76.85l-1697.27 -1193.61c-131.14,-87.7 -207.98,-218.84 -207.98,-361.67 0,-142.82 76.85,-273.96 207.98,-360.83zm131.97 536.24l1697.27 1193.61c65.99,55.12 131.14,65.99 175.41,43.43 43.43,-21.72 65.99,-87.7 65.99,-164.55l0 -2507.48c0,-87.7 -21.72,-141.99 -65.99,-164.55 -10.86,-10.86 -32.58,-10.86 -43.43,-10.86 -32.58,0 -87.7,10.86 -141.99,55.12l-1697.27 1193.61c-65.99,43.43 -109.42,109.42 -109.42,175.41 -1.67,65.99 42.6,131.14 119.44,186.26z"/>
 </g>
</svg>
