<?xml version="1.0" encoding="UTF-8"?>
<!DOCTYPE svg PUBLIC "-//W3C//DTD SVG 1.1//EN" "http://www.w3.org/Graphics/SVG/1.1/DTD/svg11.dtd">
<!-- Creator: CorelDRAW 2019 (64-Bit) -->
<svg xmlns="http://www.w3.org/2000/svg" xml:space="preserve" width="210.961mm" height="210.961mm" version="1.1" shape-rendering="geometricPrecision" text-rendering="geometricPrecision" image-rendering="optimizeQuality" fill-rule="evenodd" clip-rule="evenodd"
viewBox="0 0 6553.24 6553.25"
 xmlns:xlink="http://www.w3.org/1999/xlink"
 xmlns:xodm="http://www.corel.com/coreldraw/odm/2003">
 <g id="Vrstva_x0020_1">
  <metadata id="CorelCorpID_0Corel-Layer"/>
  <g id="_1648284370592">
   <path fill="black" fill-rule="nonzero" d="M4609.55 2844.14l-1543.79 -1109.35c-152.56,-109.43 -348.22,-152.56 -500.79,-64.67 -152.56,64.67 -238.78,238.79 -238.78,434.45l0 2348.02c0,195.66 86.22,348.22 238.78,434.45 64.67,21.55 131,43.12 195.66,43.12 109.44,0 217.23,-43.12 305.11,-131.01l1543.79 -1109.36c152.56,-109.43 238.78,-260.35 238.78,-434.45 0,-150.85 -86.21,-303.41 -238.77,-411.2zm-260.35 520.68l-1543.79 1109.35c-21.55,0 -43.12,21.55 -43.12,21.55 0,0 0,-21.55 0,-43.12l0 -2348.01c0,-21.55 0,-43.12 0,-43.12 21.55,0 21.55,21.55 64.67,43.12l1543.78 1109.35c21.55,0 43.12,43.12 43.12,64.67 0,21.55 -21.54,64.63 -64.66,86.21z"/>
   <path fill="black" fill-rule="nonzero" d="M5593.03 960.22c-1280.19,-1280.19 -3352.42,-1280.39 -4632.81,0 -1280.19,1280.19 -1280.39,3352.42 0,4632.81 1280.19,1280.2 3352.42,1280.39 4632.81,0 1280.18,-1280.18 1280.38,-3352.41 0,-4632.81zm-2316.41 5054.14c-1509.59,0 -2737.74,-1228.15 -2737.74,-2737.74 0,-1509.59 1228.15,-2737.73 2737.74,-2737.73 1509.59,0 2737.73,1228.15 2737.73,2737.74 0,1509.59 -1228.14,2737.73 -2737.73,2737.73z"/>
  </g>
 </g>
</svg>
