<?xml version="1.0" encoding="UTF-8"?>
<!DOCTYPE svg PUBLIC "-//W3C//DTD SVG 1.1//EN" "http://www.w3.org/Graphics/SVG/1.1/DTD/svg11.dtd">
<!-- Creator: CorelDRAW 2019 (64-Bit) -->
<svg xmlns="http://www.w3.org/2000/svg" xml:space="preserve" width="96.0015mm" height="107.245mm" version="1.1" shape-rendering="geometricPrecision" text-rendering="geometricPrecision" image-rendering="optimizeQuality" fill-rule="evenodd" clip-rule="evenodd"
viewBox="0 0 7568.45 8454.87"
 xmlns:xlink="http://www.w3.org/1999/xlink"
 xmlns:xodm="http://www.corel.com/coreldraw/odm/2003">
 <g id="Vrstva_x0020_1">
  <metadata id="CorelCorpID_0Corel-Layer"/>
  <g id="_1648322149888">
   <g id="line">
    <path fill="black" fill-rule="nonzero" d="M6731.87 5933.92c-543.64,1008.86 -1598.72,1638.63 -2745.16,1638.63 -1722.17,0 -3118.8,-1396.63 -3118.8,-3118.8 0,-1722.14 1396.63,-3118.77 3118.8,-3118.77 815.17,0 1599.16,319.84 2181.72,889.83l-1283.27 0.13c-245.73,0.01 -444.99,199.28 -444.99,444.99 0,245.72 199.27,444.99 444.99,444.99l2224.96 0c6.28,0 11.48,-3.3 17.8,-3.56l3.96 -0.8c236.02,-10.37 422.36,-204.33 423.23,-440.61l0 -2224.95c-0.01,-245.73 -199.28,-444.99 -444.99,-444.99 -245.72,0 -444.99,199.27 -444.99,444.99l0 1035c-732.97,-656.63 -1683.19,-1020.23 -2667.57,-1020.23 -2207.4,0 -3997.55,1790.15 -3997.55,3997.54 0,2207.42 1790.15,3997.57 3997.55,3997.57 1468.52,0 2819.91,-806.25 3517.33,-2098.1 35.22,-65 53.58,-137.7 53.58,-211.47 0,-245.73 -199.28,-445 -445,-445 -163.53,0 -313.96,89.75 -391.6,233.61l0.02 0.02z"/>
   </g>
  </g>
 </g>
</svg>
