<?xml version="1.0" encoding="UTF-8"?>
<!DOCTYPE svg PUBLIC "-//W3C//DTD SVG 1.1//EN" "http://www.w3.org/Graphics/SVG/1.1/DTD/svg11.dtd">
<!-- Creator: CorelDRAW 2019 (64-Bit) -->
<svg xmlns="http://www.w3.org/2000/svg" xml:space="preserve" width="101.6mm" height="112.768mm" version="1.1" shape-rendering="geometricPrecision" text-rendering="geometricPrecision" image-rendering="optimizeQuality" fill-rule="evenodd" clip-rule="evenodd"
viewBox="0 0 1135.31 1260.11"
 xmlns:xlink="http://www.w3.org/1999/xlink"
 xmlns:xodm="http://www.corel.com/coreldraw/odm/2003">
 <g id="Vrstva_x0020_1">
  <metadata id="CorelCorpID_0Corel-Layer"/>
  <g id="_1647747745200">
   <g id="line">
    <path fill="black" fill-rule="nonzero" d="M126.14 630.05l0 -126.15c0.09,-104.44 84.78,-189.13 189.22,-189.22l604.61 0 -81.55 81.55c-11.35,11.76 -17.71,27.47 -17.71,43.82 0,34.83 28.24,63.07 63.07,63.07 16.35,0 32.06,-6.35 43.81,-17.7l189.22 -189.22c11.8,-11.83 18.43,-27.88 18.43,-44.6 0,-16.71 -6.63,-32.77 -18.43,-44.6l-189.22 -189.22c-11.76,-11.41 -27.52,-17.8 -43.91,-17.8 -34.83,0 -63.07,28.24 -63.07,63.07 0,16.39 6.39,32.15 17.8,43.91l81.55 81.55 -604.61 0c-174.09,0.19 -315.17,141.28 -315.36,315.35l0 126.15c0,34.84 28.24,63.08 63.07,63.08 34.83,0 63.07,-28.24 63.07,-63.07l-0 0z"/>
    <path fill="black" fill-rule="nonzero" d="M1009.17 630.05l0 126.15c-0.09,104.44 -84.78,189.13 -189.22,189.22l-604.61 0 81.55 -81.55c11.42,-11.77 17.8,-27.52 17.8,-43.92 0,-34.83 -28.24,-63.07 -63.07,-63.07 -16.39,0 -32.15,6.39 -43.91,17.8l-189.22 189.22c-11.53,11.98 -17.97,27.97 -17.97,44.59 0,16.63 6.44,32.62 17.96,44.6l189.22 189.22c11.77,11.41 27.52,17.8 43.92,17.8 34.83,0 63.07,-28.24 63.07,-63.07 0,-16.39 -6.39,-32.15 -17.8,-43.91l-81.55 -81.55 604.61 -0c174.09,-0.19 315.17,-141.28 315.36,-315.35l0 -126.15c0,-34.84 -28.24,-63.08 -63.07,-63.08 -34.83,0 -63.07,28.24 -63.07,63.07z"/>
   </g>
  </g>
 </g>
</svg>
