<svg height="512" viewBox="0 0 64 64" width="512" xmlns="http://www.w3.org/2000/svg"><g id="outline" fill="rgb(0,0,0)"><path d="m57.011 28h-45.533a2.978 2.978 0 0 1 -2.79-1.908l-7.476-17.703a3.246 3.246 0 0 1 .388-3.02 3.016 3.016 0 0 1 2.459-1.369h52.952a6 6 0 0 1 5.989 6v12a6 6 0 0 1 -5.989 6zm-52.952-22a1.027 1.027 0 0 0 -.807.5 1.276 1.276 0 0 0 -.187 1.139l7.476 17.7a1 1 0 0 0 .937.66h45.533a4 4 0 0 0 3.989-3.999v-12a4 4 0 0 0 -3.989-4z"/><path d="m59.953 60h-11.217a3.034 3.034 0 0 1 -2.954-2.267l-5.782-19.733v-12h17v7.87l5.92 22.456a2.973 2.973 0 0 1 -.58 2.537 3.047 3.047 0 0 1 -2.387 1.137zm-17.953-22.145 5.71 19.345a1.047 1.047 0 0 0 1.026.8h11.217a1.057 1.057 0 0 0 .829-.391.957.957 0 0 0 .195-.814l-5.977-22.795v-6h-13z"/><path d="m42 39h-6.331a3 3 0 0 1 -2.952-2.463l-1.917-10.537h11.2zm-8.8-11 1.487 8.179a1 1 0 0 0 .984.821h4.329v-9z"/><path d="m6 40h-2v-4h4v2h-2z"/><path d="m28 40h-2v-2h-2v-2h4z"/><path d="m28 60h-4v-2h2v-2h2z"/><path d="m8 60h-4v-4h2v2h2z"/><path d="m10 43h2v10h-2z"/><path d="m15 43h2v10h-2z"/><path d="m20 43h2v10h-2z"/><path d="m18 43h1v10h-1z"/><path d="m23 43h1v10h-1z"/><path d="m8 43h1v10h-1z"/><path d="m13 43h1v10h-1z"/><path d="m38 22h-30.38v-2h30.38a4 4 0 0 0 0-8h-34.6v-2h34.6a6 6 0 1 1 0 12z"/><path d="m43 15h19v2h-19z"/></g></svg>