<?xml version="1.0" encoding="UTF-8"?>
<!DOCTYPE svg PUBLIC "-//W3C//DTD SVG 1.1//EN" "http://www.w3.org/Graphics/SVG/1.1/DTD/svg11.dtd">
<!-- Creator: CorelDRAW 2019 (64-Bit) -->
<svg xmlns="http://www.w3.org/2000/svg" xml:space="preserve" width="155.29mm" height="246.858mm" version="1.1" shape-rendering="geometricPrecision" text-rendering="geometricPrecision" image-rendering="optimizeQuality" fill-rule="evenodd" clip-rule="evenodd"
viewBox="0 0 3173.38 5044.6"
 xmlns:xlink="http://www.w3.org/1999/xlink"
 xmlns:xodm="http://www.corel.com/coreldraw/odm/2003">
 <g id="Vrstva_x0020_1">
  <metadata id="CorelCorpID_0Corel-Layer"/>
  <path fill="none" fill-rule="nonzero" stroke="black" stroke-width="72.09" stroke-miterlimit="22.9256" d="M103.75 2322.47l2962.93 0c1.07,0 2.31,0 2.87,0 37.3,0 67.79,-30.49 67.79,-67.79 0,-21.16 -9.48,-40.02 -24.95,-52.62l-1560.04 -2138.23c-13.17,-17.99 -35.97,-27.52 -56.67,-27.77 -22.39,0.67 -42.68,12.2 -55.03,31.05l-1393.72 2150.84c-13.68,20.6 -14.25,47.45 -2.87,69.43 12.09,21.52 34.9,35.1 59.7,35.1z"/>
  <path fill="none" fill-rule="nonzero" stroke="#2B2A29" stroke-width="72.09" stroke-miterlimit="22.9256" d="M3126.32 2757.8c11.94,21.67 10.86,48.01 -2.87,69.12l-1393.67 2150.58c-12.35,18.86 -32.69,30.39 -55.19,31.05 -0.56,0 -1.08,0 -2.05,0 -21.26,0 -42.02,-10.3 -54.62,-27.77l-1568.81 -2150.74c-14.91,-20.34 -17.22,-48.01 -5.53,-70.61 11.53,-22.8 34.84,-36.89 60.21,-36.89l2962.88 0c25.31,-0.26 47.86,13.27 59.64,35.25z"/>
 </g>
</svg>
