<?xml version="1.0" encoding="UTF-8"?>
<!DOCTYPE svg PUBLIC "-//W3C//DTD SVG 1.1//EN" "http://www.w3.org/Graphics/SVG/1.1/DTD/svg11.dtd">
<!-- Creator: CorelDRAW 2019 (64-Bit) -->
<svg xmlns="http://www.w3.org/2000/svg" xml:space="preserve" width="151.762mm" height="243.33mm" version="1.1" shape-rendering="geometricPrecision" text-rendering="geometricPrecision" image-rendering="optimizeQuality" fill-rule="evenodd" clip-rule="evenodd"
viewBox="0 0 6771.91 10857.84"
 xmlns:xlink="http://www.w3.org/1999/xlink"
 xmlns:xodm="http://www.corel.com/coreldraw/odm/2003">
 <g id="Vrstva_x0020_1">
  <metadata id="CorelCorpID_0Corel-Layer"/>
  <g id="_1648290505424">
   <g>
    <path fill="black" fill-rule="nonzero" d="M6747.86 5943.15c26.07,47.33 23.72,104.83 -6.26,150.93l-3043.18 4695.95c-26.96,41.17 -71.39,66.35 -120.5,67.8 -1.23,0 -2.35,0 -4.48,0 -46.43,0 -91.75,-22.49 -119.27,-60.64l-3425.61 -4696.29c-32.56,-44.42 -37.59,-104.83 -12.08,-154.18 25.17,-49.79 76.08,-80.56 131.46,-80.56l6469.68 0c55.27,-0.56 104.5,28.98 130.23,76.98zm-6600.03 -950.58l6469.79 0c2.35,0 5.03,0 6.26,0 81.45,0 148.02,-66.57 148.02,-148.02 0,-46.21 -20.7,-87.38 -54.49,-114.91l-3406.47 -4668.99c-28.75,-39.27 -78.54,-60.08 -123.75,-60.64 -48.9,1.45 -93.2,26.63 -120.17,67.8l-3043.29 4696.52c-29.87,44.98 -31.11,103.6 -6.27,151.6 26.41,46.99 76.2,76.64 130.35,76.64z"/>
   </g>
   <g>
   </g>
   <g>
   </g>
   <g>
   </g>
   <g>
   </g>
   <g>
   </g>
   <g>
   </g>
   <g>
   </g>
   <g>
   </g>
   <g>
   </g>
   <g>
   </g>
   <g>
   </g>
   <g>
   </g>
   <g>
   </g>
   <g>
   </g>
   <g>
   </g>
  </g>
 </g>
</svg>
