<?xml version="1.0" encoding="UTF-8"?>
<!DOCTYPE svg PUBLIC "-//W3C//DTD SVG 1.1//EN" "http://www.w3.org/Graphics/SVG/1.1/DTD/svg11.dtd">
<!-- Creator: CorelDRAW 2019 (64-Bit) -->
<svg xmlns="http://www.w3.org/2000/svg" xml:space="preserve" width="155.148mm" height="245.094mm" version="1.1" shape-rendering="geometricPrecision" text-rendering="geometricPrecision" image-rendering="optimizeQuality" fill-rule="evenodd" clip-rule="evenodd"
viewBox="0 0 3167.54 5003.89"
 xmlns:xlink="http://www.w3.org/1999/xlink"
 xmlns:xodm="http://www.corel.com/coreldraw/odm/2003">
 <g id="Vrstva_x0020_1">
  <metadata id="CorelCorpID_0Corel-Layer"/>
  <path fill="black" fill-rule="nonzero" d="M103.52 2284.29l2960.18 0c1.07,0 2.3,0 2.87,0 37.27,0 67.73,-30.46 67.73,-67.73 0,-21.14 -9.47,-39.98 -24.93,-52.57l-1558.59 -2136.24c-13.16,-17.97 -35.94,-27.49 -56.62,-27.75 -22.37,0.67 -42.64,12.18 -54.98,31.02l-1392.42 2148.84c-13.67,20.58 -14.23,47.4 -2.87,69.36 12.08,21.5 34.86,35.07 59.64,35.07z"/>
  <path fill="none" fill-rule="nonzero" stroke="#2B2A29" stroke-width="72.02" stroke-miterlimit="22.9256" d="M3123.29 2719.22c11.93,21.65 10.85,47.97 -2.87,69.06l-1392.37 2148.58c-12.34,18.84 -32.66,30.36 -55.13,31.02 -0.56,0 -1.08,0 -2.05,0 -21.25,0 -41.98,-10.29 -54.57,-27.75l-1567.35 -2148.73c-14.9,-20.32 -17.2,-47.97 -5.53,-70.54 11.52,-22.78 34.81,-36.86 60.15,-36.86l2960.13 0c25.29,-0.26 47.81,13.26 59.59,35.22z"/>
 </g>
</svg>
