<svg xmlns="http://www.w3.org/2000/svg" xml:space="preserve" width="195.693mm" height="210mm" version="1.1" shape-rendering="geometricPrecision" text-rendering="geometricPrecision" image-rendering="optimizeQuality" fill-rule="evenodd" clip-rule="evenodd"
viewBox="0 0 6082.79 6527.49"
 xmlns:xlink="http://www.w3.org/1999/xlink"
 xmlns:xodm="http://www.corel.com/coreldraw/odm/2003">
 <g id="Vrstva_x0020_1">
  <metadata id="CorelCorpID_0Corel-Layer"/>
  <g id="_1647748614640">
   <g>
    <g>
     <path d="M3041.4 3676.67c-1961.26,0 -3041.4,927.82 -3041.4,2612.59 0,131.58 106.65,238.23 238.23,238.23l5606.33 -0c131.58,0 238.23,-106.65 238.23,-238.23 0.01,-1684.68 -1080.12,-2612.59 -3041.39,-2612.59zm-2556.27 2374.36c93.7,-1259.68 952.52,-1897.89 2556.27,-1897.89 1603.76,0 2462.58,638.21 2556.37,1897.89l-5112.64 0z"/>
    </g>
   </g>
   <g>
    <g>
     <path d="M3041.4 0c-900.9,0 -1580.25,693.01 -1580.25,1611.94 0,945.85 708.89,1715.25 1580.25,1715.25 871.36,0 1580.25,-769.4 1580.25,-1715.17 0,-919.01 -679.34,-1612.02 -1580.25,-1612.02zm0 2850.81c-608.67,0 -1103.79,-555.72 -1103.79,-1238.8 0,-657.99 464.23,-1135.56 1103.79,-1135.56 629.33,0 1103.79,488.13 1103.79,1135.56 0,683.08 -495.12,1238.8 -1103.79,1238.8z"/>
    </g>
   </g>
  </g>
 </g>
</svg>
