<svg xmlns="http://www.w3.org/2000/svg" xml:space="preserve" width="195.693mm" height="210mm" version="1.1" shape-rendering="geometricPrecision" text-rendering="geometricPrecision" image-rendering="optimizeQuality" fill-rule="evenodd" clip-rule="evenodd"
viewBox="0 0 6082.79 6527.49"
 xmlns:xlink="http://www.w3.org/1999/xlink"
 xmlns:xodm="http://www.corel.com/coreldraw/odm/2003">
 <g id="Vrstva_x0020_1">
  <metadata id="CorelCorpID_0Corel-Layer"/>
  <g id="_1648937676672">
   <g>
    <g>
     <path d="M3041.4 3676.67c-1961.26,0 -3041.4,927.82 -3041.4,2612.59 0,131.58 106.65,238.23 238.23,238.23l5606.33 -0c131.58,0 238.23,-106.65 238.23,-238.23 0.01,-1684.68 -1080.12,-2612.59 -3041.39,-2612.59zm-2556.27 2374.36c93.7,-1259.68 952.52,-1897.89 2556.27,-1897.89 1603.76,0 2462.58,638.21 2556.37,1897.89l-5112.64 0z"/>
    </g>
   </g>
   <g>
    <g>
     <path d="M3041.4 0c-900.9,0 -1580.25,693.01 -1580.25,1611.94 0,945.85 708.89,1715.25 1580.25,1715.25 871.36,0 1580.25,-769.4 1580.25,-1715.17 0,-919.01 -679.34,-1612.02 -1580.25,-1612.02zm0 2850.81c-608.67,0 -1103.79,-555.72 -1103.79,-1238.8 0,-657.99 464.23,-1135.56 1103.79,-1135.56 629.33,0 1103.79,488.13 1103.79,1135.56 0,683.08 -495.12,1238.8 -1103.79,1238.8z"/>
    </g>
   </g>
  </g>
  <path d="M3286.89 5350.05l0 -8.22c0,-83.62 29.7,-157.28 108.72,-244.54 81.2,-89.67 181.56,-196.12 181.56,-358.14 0,-176.94 -127.91,-332.56 -409.3,-332.56 -151.36,0 -381.19,7.64 -349.15,110.02l54.37 173.77c20.13,64.33 151.98,-29.67 222.3,-27.98 106.64,2.57 155.62,53.3 155.62,127.91 0,72.48 -55.42,140.7 -123.64,223.84 -96.64,112.98 -132.55,223.82 -126.48,332.56 1.03,18.45 -5.05,55.43 30.23,55.43 71.55,0 169,0.22 206.13,0.48 49.43,0.34 49.66,-7.99 49.66,-52.56zm-148.87 542.39c115.12,0 191.86,-83.14 191.86,-193.99 -2.13,-115.12 -76.74,-193.99 -191.86,-193.99 -110.85,0 -189.73,78.88 -189.73,193.99 0,110.85 76.74,193.99 187.6,193.99l2.13 0z"/>
 </g>
</svg>
