<?xml version="1.0" encoding="UTF-8"?>
<!DOCTYPE svg PUBLIC "-//W3C//DTD SVG 1.1//EN" "http://www.w3.org/Graphics/SVG/1.1/DTD/svg11.dtd">
<!-- Creator: CorelDRAW 2019 (64-Bit) -->
<svg xmlns="http://www.w3.org/2000/svg" xml:space="preserve" width="195.693mm" height="210mm" version="1.1" shape-rendering="geometricPrecision" text-rendering="geometricPrecision" image-rendering="optimizeQuality" fill-rule="evenodd" clip-rule="evenodd"
viewBox="0 0 6082.79 6527.49"
 xmlns:xlink="http://www.w3.org/1999/xlink"
 xmlns:xodm="http://www.corel.com/coreldraw/odm/2003">
 <g id="Vrstva_x0020_1">
  <metadata id="CorelCorpID_0Corel-Layer"/>
  <g id="_1647770594624">
   <g>
    <g>
     <path d="M3041.4 3676.67c-1961.26,0 -3041.4,927.82 -3041.4,2612.59 0,131.58 106.65,238.23 238.23,238.23l5606.33 -0c131.58,0 238.23,-106.65 238.23,-238.23 0.01,-1684.68 -1080.12,-2612.59 -3041.39,-2612.59zm-2556.27 2374.36c93.7,-1259.68 952.52,-1897.89 2556.27,-1897.89 1603.76,0 2462.58,638.21 2556.37,1897.89l-5112.64 0z"/>
    </g>
   </g>
   <g>
    <g>
     <path d="M3041.4 0c-900.9,0 -1580.25,693.01 -1580.25,1611.94 0,945.85 708.89,1715.25 1580.25,1715.25 871.36,0 1580.25,-769.4 1580.25,-1715.17 0,-919.01 -679.34,-1612.02 -1580.25,-1612.02zm0 2850.81c-608.67,0 -1103.79,-555.72 -1103.79,-1238.8 0,-657.99 464.23,-1135.56 1103.79,-1135.56 629.33,0 1103.79,488.13 1103.79,1135.56 0,683.08 -495.12,1238.8 -1103.79,1238.8z"/>
    </g>
   </g>
  </g>
  <g id="_1647770572096">
   <g>
    <path d="M3728.04 5594.61l-1134.42 -1134.42c-49.48,-49.48 -129.69,-49.48 -179.09,0l-59.79 59.7c-49.48,49.49 -49.48,129.7 0,179.1l1134.42 1134.42c49.49,49.48 129.7,49.48 179.1,0l59.7 -59.7c49.57,-49.4 49.57,-129.63 0.08,-179.1l-0 0zm0 0z"/>
    <path d="M3489.16 4460.18l-1134.42 1134.42c-49.48,49.48 -49.48,129.7 0,179.1l59.7 59.7c49.49,49.48 129.7,49.48 179.1,0l1134.5 -1134.35c49.49,-49.48 49.49,-129.69 0,-179.09l-59.7 -59.7c-49.48,-49.57 -129.69,-49.57 -179.18,-0.09zm0 0z"/>
   </g>
  </g>
 </g>
</svg>
