<?xml version="1.0" encoding="UTF-8"?>
<!DOCTYPE svg PUBLIC "-//W3C//DTD SVG 1.1//EN" "http://www.w3.org/Graphics/SVG/1.1/DTD/svg11.dtd">
<!-- Creator: CorelDRAW 2019 (64-Bit) -->
<svg xmlns="http://www.w3.org/2000/svg" xml:space="preserve" width="128.474mm" height="145.069mm" version="1.1" shape-rendering="geometricPrecision" text-rendering="geometricPrecision" image-rendering="optimizeQuality" fill-rule="evenodd" clip-rule="evenodd"
viewBox="0 0 766.11 865.06"
 xmlns:xlink="http://www.w3.org/1999/xlink"
 xmlns:xodm="http://www.corel.com/coreldraw/odm/2003">
 <g id="Vrstva_x0020_1">
  <metadata id="CorelCorpID_0Corel-Layer"/>
  <g id="_1648290527824">
   <g>
    <path fill="black" fill-rule="nonzero" d="M717.63 309.43l-20.77 0 0 -100.23c0,-0.62 -0.1,-1.25 -0.17,-1.89 -0.03,-3.98 -1.31,-7.88 -4.03,-10.98l-166.8 -190.53c-0.05,-0.05 -0.1,-0.07 -0.13,-0.12 -0.99,-1.11 -2.15,-2.04 -3.38,-2.83 -0.36,-0.24 -0.73,-0.45 -1.11,-0.66 -1.06,-0.58 -2.19,-1.06 -3.35,-1.41 -0.32,-0.08 -0.6,-0.21 -0.91,-0.29 -1.26,-0.3 -2.57,-0.49 -3.89,-0.49l-409.91 0c-18.72,0 -33.92,15.22 -33.92,33.92l0 275.5 -20.77 0c-26.78,0 -48.49,21.7 -48.49,48.49l0 252.14c0,26.76 21.71,48.49 48.49,48.49l20.77 0 0 172.6c0,18.7 15.21,33.92 33.92,33.92l559.75 0c18.7,0 33.92,-15.22 33.92,-33.92l0 -172.6 20.77 0c26.77,0 48.48,-21.72 48.48,-48.49l0 -252.13c0,-26.79 -21.7,-48.49 -48.47,-48.49zm-614.45 -275.5l392.94 0 0 173.56c0,9.37 7.6,16.96 16.96,16.96l149.84 0 0 84.98 -559.75 0 0 -275.5zm343.66 462.53c-33.33,-11.61 -55.08,-30.05 -55.08,-59.23 0,-34.23 28.57,-60.42 75.91,-60.42 22.61,0 39.29,4.76 51.19,10.12l-10.11 36.6c-8.03,-3.86 -22.32,-9.52 -41.96,-9.52 -19.65,0 -29.17,8.93 -29.17,19.35 0,12.8 11.31,18.45 37.2,28.27 35.41,13.1 52.09,31.56 52.09,59.83 0,33.64 -25.9,62.22 -80.97,62.22 -22.92,0 -45.54,-5.95 -56.85,-12.21l9.22 -37.5c12.21,6.24 30.97,12.51 50.31,12.51 20.85,0 31.85,-8.63 31.85,-21.73 0.01,-12.49 -9.52,-19.65 -33.63,-28.28zm-76.77 46.13l0 38.11 -125.34 0 0 -200.65 45.56 0 0 162.54 79.77 0zm-270.87 38.11l-51.79 0 58.04 -101.53 -55.97 -99.13 52.1 0 17.55 36.62c5.95,12.21 10.42,22.02 15.19,33.35l0.58 0c4.78,-12.8 8.64,-21.73 13.69,-33.35l16.97 -36.62 51.79 0 -56.56 97.92 59.54 102.72 -52.38 0 -18.17 -36.32c-7.43,-13.97 -12.2,-24.4 -17.85,-36.01l-0.59 0c-4.17,11.61 -9.22,22.04 -15.48,36.01l-16.66 36.34zm563.72 241.25l-559.75 0 0 -163.42 559.75 0 0 163.42 0 0zm0.31 -241.25l-18.16 -36.32c-7.44,-13.98 -12.2,-24.4 -17.86,-36.01l-0.58 0c-4.17,11.61 -9.24,22.03 -15.5,36.01l-16.65 36.32 -51.81 0 58.04 -101.53 -55.96 -99.13 52.1 0 17.57 36.62c5.95,12.21 10.4,22.02 15.17,33.35l0.59 0c4.75,-12.8 8.61,-21.73 13.68,-33.35l16.96 -36.62 51.81 0 -56.56 97.92 59.53 102.72 -52.38 0 0 0.02z"/>
   </g>
   <g>
   </g>
   <g>
   </g>
   <g>
   </g>
   <g>
   </g>
   <g>
   </g>
   <g>
   </g>
   <g>
   </g>
   <g>
   </g>
   <g>
   </g>
   <g>
   </g>
   <g>
   </g>
   <g>
   </g>
   <g>
   </g>
   <g>
   </g>
   <g>
   </g>
  </g>
 </g>
</svg>
